<?xml version="1.0" encoding="utf-8"?>
<!-- Generator: Adobe Illustrator 19.1.0, SVG Export Plug-In . SVG Version: 6.00 Build 0)  -->
<svg version="1.1" id="Layer_1" xmlns="http://www.w3.org/2000/svg" xmlns:xlink="http://www.w3.org/1999/xlink" x="0px" y="0px"
	 viewBox="0 0 53.6 53.6" style="enable-background:new 0 0 53.6 53.6;" xml:space="preserve">
<style type="text/css">
	.st0{fill:#F6DE00;}
	.st1{fill:#464641;}
	.st2{fill:#6B98CD;}
	.st3{fill:#FFFFFF;}
</style>
<g>
	<circle class="st2" cx="26.8" cy="26.8" r="26.8"/>
	<g>
		<path class="st3" d="M39.4,29c0-0.1,0-0.2,0-0.3c0-4-3.4-7.3-7.7-7.3c-3.4,0-6.1,2-7,5.1c-2.6,0.1-4.9,2.4-4.9,5.1
			c0,2.6,2.3,4.9,5,4.9h3.8c0,0,0,0,0,0c0,0,0,0,0,0h8.5c2.1,0,3.8-1.7,3.8-4C41.1,31,40.5,29.7,39.4,29z M37.2,35.6h-8.5
			c0,0,0,0,0,0c0,0,0,0,0,0h-3.8c-2.2,0-4.1-1.8-4.1-4c0-2.2,1.9-4.2,4.1-4.2c0,0,0,0,0.1,0c0.1,0,0.1,0,0.2,0
			c0.2,0,0.4-0.1,0.4-0.3c0.7-2.9,3.2-4.8,6.3-4.8c3.7,0,6.8,2.9,6.8,6.4c0,0.1,0,0.3,0,0.5c0,0.2,0.1,0.3,0.2,0.4
			c0.9,0.5,1.4,1.6,1.4,2.8C40.2,34.2,38.9,35.6,37.2,35.6z"/>
		<path class="st3" d="M18.9,32.7c-1.3-0.7-2.3-2-2.3-3.5c0-2.2,1.9-4.2,4.1-4.2c0,0,0,0,0.1,0c0.1,0,0.1,0,0.2,0
			c0.2,0,0.4-0.1,0.4-0.3c0.7-2.9,3.2-4.8,6.3-4.8c1.1,0,2.1,0.2,3,0.7c0.3,0,0.6-0.1,0.9-0.1c0.2,0,0.5,0,0.7,0
			c-1.3-1-2.9-1.5-4.7-1.5c-3.4,0-6.1,2-7,5.1c-2.6,0.1-4.9,2.4-4.9,5.1c0,2.2,1.5,4,3.6,4.6C19.1,33.5,19,33.1,18.9,32.7z"/>
		<path class="st3" d="M14.8,30.2c-0.9-0.7-1.4-1.8-1.4-3c0-2.2,1.9-4.2,4.1-4.2c0,0,0,0,0.1,0c0,0,0.1,0,0.2,0
			c0.2,0,0.4-0.1,0.4-0.3c0.7-2.9,3.2-4.8,6.3-4.8c0.7,0,1.4,0.1,2.1,0.3c0.4,0,0.7-0.1,1.1-0.1c0.3,0,0.7,0,1,0.1
			c-1.2-0.7-2.6-1.2-4.2-1.2c-3.4,0-6.1,2-7,5.1c-2.6,0.1-4.9,2.4-4.9,5.1c0,1.9,1.2,3.6,2.8,4.4C15.1,31.2,14.9,30.7,14.8,30.2z"/>
	</g>
</g>
</svg>
