<?xml version="1.0" encoding="utf-8"?>
<!-- Generator: Adobe Illustrator 19.1.0, SVG Export Plug-In . SVG Version: 6.00 Build 0)  -->
<svg version="1.1" id="Layer_1" xmlns="http://www.w3.org/2000/svg" xmlns:xlink="http://www.w3.org/1999/xlink" x="0px" y="0px"
	 viewBox="0 0 53.6 53.6" style="enable-background:new 0 0 53.6 53.6;" xml:space="preserve">
<style type="text/css">
	.st0{fill:#F6DE00;}
	.st1{fill:#464641;}
	.st2{fill:#6B98CD;}
	.st3{fill:#F9FAFA;}
</style>
<g>
	<circle class="st0" cx="26.8" cy="26.8" r="26.8"/>
	<g>
		<path class="st1" d="M23.7,30.5h-3.6c-0.7,0-1.3-0.6-1.3-1.3v-1.3c0-0.2,0.1-0.3,0.2-0.4l1.4-0.7l-0.3-0.5c0-0.1-0.1-0.1-0.1-0.2
			v-1.8c0-1,0.8-1.8,1.8-1.8c1,0,1.8,0.8,1.8,1.8v1.8c0,0.1,0,0.1-0.1,0.2l-0.3,0.5l1.4,0.7c0.2,0.1,0.2,0.2,0.2,0.4v1.3
			C25,29.9,24.4,30.5,23.7,30.5z M19.7,28.1v1.1c0,0.2,0.2,0.4,0.4,0.4h3.6c0.2,0,0.4-0.2,0.4-0.4v-1.1l-1.6-0.8
			c-0.1-0.1-0.2-0.1-0.2-0.3c0-0.1,0-0.2,0-0.3l0.4-0.8v-1.7c0-0.5-0.4-0.9-0.9-0.9c-0.5,0-0.9,0.4-0.9,0.9V26l0.4,0.8
			c0.1,0.1,0.1,0.2,0,0.3c0,0.1-0.1,0.2-0.2,0.3L19.7,28.1z"/>
		<g>
			<path class="st1" d="M34.4,25.2h-7.1c-0.2,0-0.4-0.2-0.4-0.4c0-0.2,0.2-0.4,0.4-0.4h7.1c0.2,0,0.4,0.2,0.4,0.4
				C34.8,25,34.6,25.2,34.4,25.2z"/>
			<path class="st1" d="M34.4,27.9h-7.1c-0.2,0-0.4-0.2-0.4-0.4c0-0.2,0.2-0.4,0.4-0.4h7.1c0.2,0,0.4,0.2,0.4,0.4
				C34.8,27.7,34.6,27.9,34.4,27.9z"/>
			<path class="st1" d="M34.4,30.5h-7.1c-0.2,0-0.4-0.2-0.4-0.4c0-0.2,0.2-0.4,0.4-0.4h7.1c0.2,0,0.4,0.2,0.4,0.4
				C34.8,30.3,34.6,30.5,34.4,30.5z"/>
		</g>
		<path class="st1" d="M37,35.9h-6.2c-0.2,0-0.4-0.2-0.4-0.4v-2.2h-0.9v2.2c0,0.2-0.2,0.4-0.4,0.4h-4.4c-0.2,0-0.4-0.2-0.4-0.4v-2.2
			h-0.9v2.2c0,0.2-0.2,0.4-0.4,0.4h-6.2c-0.2,0-0.4-0.2-0.4-0.4V18.5c0-0.2,0.2-0.4,0.4-0.4h10.7c0.2,0,0.4,0.2,0.4,0.4v2.2H37
			c0.2,0,0.4,0.2,0.4,0.4v14.2C37.5,35.7,37.3,35.9,37,35.9z M31.2,35h5.3V21.6h-9.3c-0.2,0-0.4-0.2-0.4-0.4V19H17v16h5.3v-2.2
			c0-0.2,0.2-0.4,0.4-0.4h1.8c0.2,0,0.4,0.2,0.4,0.4V35h3.6v-2.2c0-0.2,0.2-0.4,0.4-0.4h1.8c0.2,0,0.4,0.2,0.4,0.4V35z"/>
	</g>
</g>
</svg>
